<svg xmlns="http://www.w3.org/2000/svg" xmlns:xlink="http://www.w3.org/1999/xlink" contentStyleType="text/css" data-diagram-type="SEQUENCE" height="1021px" preserveAspectRatio="none" style="width:909px;height:1021px;background:#FFFFFF;" version="1.1" viewBox="0 0 909 1021" width="909px" zoomAndPan="magnify"><title>Coffee Maker - Linear Process Flow</title><defs/><g><text fill="#000000" font-family="sans-serif" font-size="14" font-weight="bold" lengthAdjust="spacing" textLength="278.0244" x="311.8872" y="27.9951">Coffee Maker - Linear Process Flow</text><rect fill="none" height="191.9297" style="stroke:#000000;stroke-width:1.5;" width="364.9917" x="110.5112" y="221.125"/><rect fill="none" height="162.7969" style="stroke:#000000;stroke-width:1.5;" width="572.1333" x="110.5112" y="703.25"/><rect fill="none" height="46.2656" style="stroke:#000000;stroke-width:1.5;" width="220.1543" x="672.6445" y="923.1797"/><g><title>User</title><rect fill="#000000" fill-opacity="0.00000" height="912.8516" width="8" x="23.9551" y="73.5938"/><line style="stroke:#181818;stroke-width:0.5;stroke-dasharray:5,5;" x1="27" x2="27" y1="73.5938" y2="986.4453"/></g><g><title>VAR</title><rect fill="#000000" fill-opacity="0.00000" height="912.8516" width="8" x="137.9521" y="73.5938"/><line style="stroke:#181818;stroke-width:0.5;stroke-dasharray:5,5;" x1="141.5112" x2="141.5112" y1="73.5938" y2="986.4453"/></g><g><title>Water</title><rect fill="#000000" fill-opacity="0.00000" height="912.8516" width="8" x="302.959" y="73.5938"/><line style="stroke:#181818;stroke-width:0.5;stroke-dasharray:5,5;" x1="306.8188" x2="306.8188" y1="73.5938" y2="986.4453"/></g><g><title>Timer</title><rect fill="#000000" fill-opacity="0.00000" height="912.8516" width="8" x="434.2788" y="73.5938"/><line style="stroke:#181818;stroke-width:0.5;stroke-dasharray:5,5;" x1="438.0547" x2="438.0547" y1="73.5938" y2="986.4453"/></g><g><title>Heater</title><rect fill="#000000" fill-opacity="0.00000" height="912.8516" width="8" x="564.0625" y="73.5938"/><line style="stroke:#181818;stroke-width:0.5;stroke-dasharray:5,5;" x1="567.2734" x2="567.2734" y1="73.5938" y2="986.4453"/></g><g><title>Brewer</title><rect fill="#000000" fill-opacity="0.00000" height="912.8516" width="8" x="636.748" y="73.5938"/><line style="stroke:#181818;stroke-width:0.5;stroke-dasharray:5,5;" x1="639.8516" x2="639.8516" y1="73.5938" y2="986.4453"/></g><g><title>CoffeeReady</title><rect fill="#000000" fill-opacity="0.00000" height="912.8516" width="8" x="730.4028" y="73.5938"/><line style="stroke:#181818;stroke-width:0.5;stroke-dasharray:5,5;" x1="733.6445" x2="733.6445" y1="73.5938" y2="986.4453"/></g><g><title>GVL</title><rect fill="#000000" fill-opacity="0.00000" height="912.8516" width="8" x="846.4629" y="73.5938"/><line style="stroke:#181818;stroke-width:0.5;stroke-dasharray:5,5;" x1="850.3501" x2="850.3501" y1="73.5938" y2="986.4453"/></g><g class="participant participant-head" data-participant="User"><rect fill="#E2E2F0" height="30.2969" rx="2.5" ry="2.5" style="stroke:#181818;stroke-width:0.5;" width="45.9102" x="5" y="42.2969"/><text fill="#000000" font-family="sans-serif" font-size="14" lengthAdjust="spacing" textLength="31.9102" x="12" y="62.292">User</text></g><g class="participant participant-tail" data-participant="User"><rect fill="#E2E2F0" height="30.2969" rx="2.5" ry="2.5" style="stroke:#181818;stroke-width:0.5;" width="45.9102" x="5" y="985.4453"/><text fill="#000000" font-family="sans-serif" font-size="14" lengthAdjust="spacing" textLength="31.9102" x="12" y="1005.4404">User</text></g><g class="participant participant-head" data-participant="VAR"><rect fill="#E2E2F0" height="30.2969" rx="2.5" ry="2.5" style="stroke:#181818;stroke-width:0.5;" width="42.8818" x="120.5112" y="42.2969"/><text fill="#000000" font-family="sans-serif" font-size="14" lengthAdjust="spacing" textLength="28.8818" x="127.5112" y="62.292">VAR</text></g><g class="participant participant-tail" data-participant="VAR"><rect fill="#E2E2F0" height="30.2969" rx="2.5" ry="2.5" style="stroke:#181818;stroke-width:0.5;" width="42.8818" x="120.5112" y="985.4453"/><text fill="#000000" font-family="sans-serif" font-size="14" lengthAdjust="spacing" textLength="28.8818" x="127.5112" y="1005.4404">VAR</text></g><g class="participant participant-head" data-participant="Water"><rect fill="#E2E2F0" height="30.2969" rx="2.5" ry="2.5" style="stroke:#181818;stroke-width:0.5;" width="56.2803" x="278.8188" y="42.2969"/><text fill="#000000" font-family="sans-serif" font-size="14" lengthAdjust="spacing" textLength="42.2803" x="285.8188" y="62.292">Water</text></g><g class="participant participant-tail" data-participant="Water"><rect fill="#E2E2F0" height="30.2969" rx="2.5" ry="2.5" style="stroke:#181818;stroke-width:0.5;" width="56.2803" x="278.8188" y="985.4453"/><text fill="#000000" font-family="sans-serif" font-size="14" lengthAdjust="spacing" textLength="42.2803" x="285.8188" y="1005.4404">Water</text></g><g class="participant participant-head" data-participant="Timer"><rect fill="#E2E2F0" height="30.2969" rx="2.5" ry="2.5" style="stroke:#181818;stroke-width:0.5;" width="54.4482" x="411.0547" y="42.2969"/><text fill="#000000" font-family="sans-serif" font-size="14" lengthAdjust="spacing" textLength="40.4482" x="418.0547" y="62.292">Timer</text></g><g class="participant participant-tail" data-participant="Timer"><rect fill="#E2E2F0" height="30.2969" rx="2.5" ry="2.5" style="stroke:#181818;stroke-width:0.5;" width="54.4482" x="411.0547" y="985.4453"/><text fill="#000000" font-family="sans-serif" font-size="14" lengthAdjust="spacing" textLength="40.4482" x="418.0547" y="1005.4404">Timer</text></g><g class="participant participant-head" data-participant="Heater"><rect fill="#E2E2F0" height="30.2969" rx="2.5" ry="2.5" style="stroke:#181818;stroke-width:0.5;" width="61.5781" x="537.2734" y="42.2969"/><text fill="#000000" font-family="sans-serif" font-size="14" lengthAdjust="spacing" textLength="47.5781" x="544.2734" y="62.292">Heater</text></g><g class="participant participant-tail" data-participant="Heater"><rect fill="#E2E2F0" height="30.2969" rx="2.5" ry="2.5" style="stroke:#181818;stroke-width:0.5;" width="61.5781" x="537.2734" y="985.4453"/><text fill="#000000" font-family="sans-serif" font-size="14" lengthAdjust="spacing" textLength="47.5781" x="544.2734" y="1005.4404">Heater</text></g><g class="participant participant-head" data-participant="Brewer"><rect fill="#E2E2F0" height="30.2969" rx="2.5" ry="2.5" style="stroke:#181818;stroke-width:0.5;" width="63.793" x="608.8516" y="42.2969"/><text fill="#000000" font-family="sans-serif" font-size="14" lengthAdjust="spacing" textLength="49.793" x="615.8516" y="62.292">Brewer</text></g><g class="participant participant-tail" data-participant="Brewer"><rect fill="#E2E2F0" height="30.2969" rx="2.5" ry="2.5" style="stroke:#181818;stroke-width:0.5;" width="63.793" x="608.8516" y="985.4453"/><text fill="#000000" font-family="sans-serif" font-size="14" lengthAdjust="spacing" textLength="49.793" x="615.8516" y="1005.4404">Brewer</text></g><g class="participant participant-head" data-participant="CoffeeReady"><rect fill="#E2E2F0" height="30.2969" rx="2.5" ry="2.5" style="stroke:#181818;stroke-width:0.5;" width="103.5166" x="682.6445" y="42.2969"/><text fill="#000000" font-family="sans-serif" font-size="14" lengthAdjust="spacing" textLength="89.5166" x="689.6445" y="62.292">CoffeeReady</text></g><g class="participant participant-tail" data-participant="CoffeeReady"><rect fill="#E2E2F0" height="30.2969" rx="2.5" ry="2.5" style="stroke:#181818;stroke-width:0.5;" width="103.5166" x="682.6445" y="985.4453"/><text fill="#000000" font-family="sans-serif" font-size="14" lengthAdjust="spacing" textLength="89.5166" x="689.6445" y="1005.4404">CoffeeReady</text></g><g class="participant participant-head" data-participant="GVL"><rect fill="#E2E2F0" height="30.2969" rx="2.5" ry="2.5" style="stroke:#181818;stroke-width:0.5;" width="42.2256" x="829.3501" y="42.2969"/><text fill="#000000" font-family="sans-serif" font-size="14" lengthAdjust="spacing" textLength="28.2256" x="836.3501" y="62.292">GVL</text></g><g class="participant participant-tail" data-participant="GVL"><rect fill="#E2E2F0" height="30.2969" rx="2.5" ry="2.5" style="stroke:#181818;stroke-width:0.5;" width="42.2256" x="829.3501" y="985.4453"/><text fill="#000000" font-family="sans-serif" font-size="14" lengthAdjust="spacing" textLength="28.2256" x="836.3501" y="1005.4404">GVL</text></g><rect fill="#EEEEEE" height="3" style="stroke:#EEEEEE;stroke-width:1;" width="902.7988" x="0" y="104.1602"/><line style="stroke:#000000;stroke-width:1;" x1="0" x2="902.7988" y1="104.1602" y2="104.1602"/><line style="stroke:#000000;stroke-width:1;" x1="0" x2="902.7988" y1="107.1602" y2="107.1602"/><rect fill="#EEEEEE" height="23.1328" style="stroke:#000000;stroke-width:2;" width="116.8955" x="392.9517" y="93.5938"/><text fill="#000000" font-family="sans-serif" font-size="13" font-weight="bold" lengthAdjust="spacing" textLength="98.3696" x="398.9517" y="109.6606">Start Process</text><g class="message" data-participant-1="User" data-participant-2="VAR"><polygon fill="#181818" points="129.9521,143.8594,139.9521,147.8594,129.9521,151.8594,133.9521,147.8594" style="stroke:#181818;stroke-width:1;"/><line style="stroke:#181818;stroke-width:1;" x1="27.9551" x2="135.9521" y1="147.8594" y2="147.8594"/><text fill="#000000" font-family="sans-serif" font-size="13" lengthAdjust="spacing" textLength="89.9971" x="34.9551" y="142.7935">Start := TRUE</text></g><g class="message" data-participant-1="VAR" data-participant-2="Water"><polygon fill="#181818" points="294.959,172.9922,304.959,176.9922,294.959,180.9922,298.959,176.9922" style="stroke:#181818;stroke-width:1;"/><line style="stroke:#181818;stroke-width:1;" x1="141.9521" x2="300.959" y1="176.9922" y2="176.9922"/><text fill="#000000" font-family="sans-serif" font-size="13" lengthAdjust="spacing" textLength="124.4268" x="148.9521" y="171.9263">Check Water_Level</text></g><g class="message" data-participant-1="Water" data-participant-2="VAR"><polygon fill="#181818" points="152.9521,202.125,142.9521,206.125,152.9521,210.125,148.9521,206.125" style="stroke:#181818;stroke-width:1;"/><line style="stroke:#181818;stroke-width:1;" x1="146.9521" x2="305.959" y1="206.125" y2="206.125"/><text fill="#000000" font-family="sans-serif" font-size="13" lengthAdjust="spacing" textLength="80.3042" x="158.9521" y="201.0591">Water_Level</text></g><path d="M110.5112,221.125 L174.9541,221.125 L174.9541,228.2578 L164.9541,238.2578 L110.5112,238.2578 L110.5112,221.125" fill="#EEEEEE" style="stroke:#000000;stroke-width:1.5;"/><rect fill="none" height="191.9297" style="stroke:#000000;stroke-width:1.5;" width="364.9917" x="110.5112" y="221.125"/><text fill="#000000" font-family="sans-serif" font-size="13" font-weight="bold" lengthAdjust="spacing" textLength="19.4429" x="125.5112" y="234.1919">alt</text><text fill="#000000" font-family="sans-serif" font-size="11" font-weight="bold" lengthAdjust="spacing" textLength="129.3306" x="189.9541" y="233.3354">[Water_Level &lt; 80%]</text><g class="message" data-participant-1="VAR" data-participant-2="Water"><polygon fill="#181818" points="294.959,255.3906,304.959,259.3906,294.959,263.3906,298.959,259.3906" style="stroke:#181818;stroke-width:1;"/><line style="stroke:#181818;stroke-width:1;" x1="141.9521" x2="300.959" y1="259.3906" y2="259.3906"/><text fill="#000000" font-family="sans-serif" font-size="13" lengthAdjust="spacing" textLength="74.3057" x="148.9521" y="254.3247">Start Filling</text></g><g class="message" data-participant-1="Water" data-participant-2="VAR"><polygon fill="#181818" points="152.9521,284.5234,142.9521,288.5234,152.9521,292.5234,148.9521,288.5234" style="stroke:#181818;stroke-width:1;"/><line style="stroke:#181818;stroke-width:1;" x1="146.9521" x2="305.959" y1="288.5234" y2="288.5234"/><text fill="#000000" font-family="sans-serif" font-size="13" lengthAdjust="spacing" textLength="107.6689" x="158.9521" y="283.4575">FILLING := TRUE</text></g><g class="message" data-participant-1="Water" data-participant-2="Timer"><polygon fill="#181818" points="426.2788,313.6563,436.2788,317.6563,426.2788,321.6563,430.2788,317.6563" style="stroke:#181818;stroke-width:1;"/><line style="stroke:#181818;stroke-width:1;" x1="306.959" x2="432.2788" y1="317.6563" y2="317.6563"/><text fill="#000000" font-family="sans-serif" font-size="13" lengthAdjust="spacing" textLength="53.8916" x="313.959" y="312.5903">timer 5s</text></g><g class="message" data-participant-1="Timer" data-participant-2="Water"><polygon fill="#181818" points="317.959,342.7891,307.959,346.7891,317.959,350.7891,313.959,346.7891" style="stroke:#181818;stroke-width:1;"/><line style="stroke:#181818;stroke-width:1;" x1="311.959" x2="437.2788" y1="346.7891" y2="346.7891"/><text fill="#000000" font-family="sans-serif" font-size="13" lengthAdjust="spacing" textLength="107.3198" x="323.959" y="341.7231">timer.Q := TRUE</text></g><g class="message" data-participant-1="Water" data-participant-2="VAR"><polygon fill="#181818" points="152.9521,371.9219,142.9521,375.9219,152.9521,379.9219,148.9521,375.9219" style="stroke:#181818;stroke-width:1;"/><line style="stroke:#181818;stroke-width:1;" x1="146.9521" x2="305.959" y1="375.9219" y2="375.9219"/><text fill="#000000" font-family="sans-serif" font-size="13" lengthAdjust="spacing" textLength="141.0068" x="158.9521" y="370.856">Water_Level := 100%</text></g><g class="message" data-participant-1="Water" data-participant-2="VAR"><polygon fill="#181818" points="152.9521,401.0547,142.9521,405.0547,152.9521,409.0547,148.9521,405.0547" style="stroke:#181818;stroke-width:1;"/><line style="stroke:#181818;stroke-width:1;" x1="146.9521" x2="305.959" y1="405.0547" y2="405.0547"/><text fill="#000000" font-family="sans-serif" font-size="13" lengthAdjust="spacing" textLength="113.0454" x="158.9521" y="399.9888">FILLING := FALSE</text></g><g class="message" data-participant-1="VAR" data-participant-2="Heater"><polygon fill="#181818" points="556.0625,437.1875,566.0625,441.1875,556.0625,445.1875,560.0625,441.1875" style="stroke:#181818;stroke-width:1;"/><line style="stroke:#181818;stroke-width:1;" x1="141.9521" x2="562.0625" y1="441.1875" y2="441.1875"/><text fill="#000000" font-family="sans-serif" font-size="13" lengthAdjust="spacing" textLength="86.8296" x="148.9521" y="436.1216">Start Heating</text></g><g class="message" data-participant-1="Heater" data-participant-2="VAR"><polygon fill="#181818" points="152.9521,466.3203,142.9521,470.3203,152.9521,474.3203,148.9521,470.3203" style="stroke:#181818;stroke-width:1;"/><line style="stroke:#181818;stroke-width:1;" x1="146.9521" x2="567.0625" y1="470.3203" y2="470.3203"/><text fill="#000000" font-family="sans-serif" font-size="13" lengthAdjust="spacing" textLength="116.6953" x="158.9521" y="465.2544">HEATING := TRUE</text></g><g class="message" data-participant-1="Heater" data-participant-2="Timer"><polygon fill="#181818" points="449.2788,495.4531,439.2788,499.4531,449.2788,503.4531,445.2788,499.4531" style="stroke:#181818;stroke-width:1;"/><line style="stroke:#181818;stroke-width:1;" x1="443.2788" x2="567.0625" y1="499.4531" y2="499.4531"/><text fill="#000000" font-family="sans-serif" font-size="13" lengthAdjust="spacing" textLength="53.8916" x="455.2788" y="494.3872">timer 5s</text></g><g class="message" data-participant-1="Timer" data-participant-2="Heater"><polygon fill="#181818" points="556.0625,524.5859,566.0625,528.5859,556.0625,532.5859,560.0625,528.5859" style="stroke:#181818;stroke-width:1;"/><line style="stroke:#181818;stroke-width:1;stroke-dasharray:2,2;" x1="438.2788" x2="562.0625" y1="528.5859" y2="528.5859"/><text fill="#000000" font-family="sans-serif" font-size="13" lengthAdjust="spacing" textLength="105.7837" x="445.2788" y="523.52">Timer.Q = TRUE</text></g><g class="message" data-participant-1="Heater" data-participant-2="VAR"><polygon fill="#181818" points="152.9521,553.7188,142.9521,557.7188,152.9521,561.7188,148.9521,557.7188" style="stroke:#181818;stroke-width:1;"/><line style="stroke:#181818;stroke-width:1;" x1="146.9521" x2="567.0625" y1="557.7188" y2="557.7188"/><text fill="#000000" font-family="sans-serif" font-size="13" lengthAdjust="spacing" textLength="122.0718" x="158.9521" y="552.6528">HEATING := FALSE</text></g><g class="message" data-participant-1="Heater" data-participant-2="VAR"><polygon fill="#181818" points="152.9521,582.8516,142.9521,586.8516,152.9521,590.8516,148.9521,586.8516" style="stroke:#181818;stroke-width:1;"/><line style="stroke:#181818;stroke-width:1;" x1="146.9521" x2="567.0625" y1="586.8516" y2="586.8516"/><text fill="#000000" font-family="sans-serif" font-size="13" lengthAdjust="spacing" textLength="135.0972" x="158.9521" y="581.7856">Water_Temp := 90.0</text></g><g class="message" data-participant-1="Heater" data-participant-2="VAR"><polygon fill="#181818" points="152.9521,611.9844,142.9521,615.9844,152.9521,619.9844,148.9521,615.9844" style="stroke:#181818;stroke-width:1;"/><line style="stroke:#181818;stroke-width:1;" x1="146.9521" x2="567.0625" y1="615.9844" y2="615.9844"/><text fill="#000000" font-family="sans-serif" font-size="13" lengthAdjust="spacing" textLength="144.9424" x="158.9521" y="610.9185">Water_Ready := TRUE</text></g><rect fill="#EEEEEE" height="3" style="stroke:#EEEEEE;stroke-width:1;" width="902.7988" x="0" y="644.5508"/><line style="stroke:#000000;stroke-width:1;" x1="0" x2="902.7988" y1="644.5508" y2="644.5508"/><line style="stroke:#000000;stroke-width:1;" x1="0" x2="902.7988" y1="647.5508" y2="647.5508"/><rect fill="#EEEEEE" height="23.1328" style="stroke:#000000;stroke-width:2;" width="140.0835" x="381.3577" y="633.9844"/><text fill="#000000" font-family="sans-serif" font-size="13" font-weight="bold" lengthAdjust="spacing" textLength="121.5576" x="387.3577" y="650.0513">Brewing Process</text><g class="message" data-participant-1="VAR" data-participant-2="Brewer"><polygon fill="#181818" points="628.748,684.25,638.748,688.25,628.748,692.25,632.748,688.25" style="stroke:#181818;stroke-width:1;"/><line style="stroke:#181818;stroke-width:1;" x1="141.9521" x2="634.748" y1="688.25" y2="688.25"/><text fill="#000000" font-family="sans-serif" font-size="13" lengthAdjust="spacing" textLength="130.8252" x="148.9521" y="683.1841">Check Water_Ready</text></g><path d="M110.5112,703.25 L174.9541,703.25 L174.9541,710.3828 L164.9541,720.3828 L110.5112,720.3828 L110.5112,703.25" fill="#EEEEEE" style="stroke:#000000;stroke-width:1.5;"/><rect fill="none" height="162.7969" style="stroke:#000000;stroke-width:1.5;" width="572.1333" x="110.5112" y="703.25"/><text fill="#000000" font-family="sans-serif" font-size="13" font-weight="bold" lengthAdjust="spacing" textLength="19.4429" x="125.5112" y="716.3169">alt</text><text fill="#000000" font-family="sans-serif" font-size="11" font-weight="bold" lengthAdjust="spacing" textLength="140.9482" x="189.9541" y="715.4604">[Water_Ready = TRUE]</text><g class="message" data-participant-1="Brewer" data-participant-2="VAR"><polygon fill="#181818" points="152.9521,737.5156,142.9521,741.5156,152.9521,745.5156,148.9521,741.5156" style="stroke:#181818;stroke-width:1;"/><line style="stroke:#181818;stroke-width:1;" x1="146.9521" x2="639.748" y1="741.5156" y2="741.5156"/><text fill="#000000" font-family="sans-serif" font-size="13" lengthAdjust="spacing" textLength="120.8911" x="158.9521" y="736.4497">BREWING := TRUE</text></g><g class="message" data-participant-1="Brewer" data-participant-2="Timer"><polygon fill="#181818" points="449.2788,766.6484,439.2788,770.6484,449.2788,774.6484,445.2788,770.6484" style="stroke:#181818;stroke-width:1;"/><line style="stroke:#181818;stroke-width:1;" x1="443.2788" x2="639.748" y1="770.6484" y2="770.6484"/><text fill="#000000" font-family="sans-serif" font-size="13" lengthAdjust="spacing" textLength="89.7813" x="455.2788" y="765.5825">Start 3s/6s/9s</text></g><g class="message" data-participant-1="Timer" data-participant-2="Brewer"><polygon fill="#181818" points="628.748,795.7813,638.748,799.7813,628.748,803.7813,632.748,799.7813" style="stroke:#181818;stroke-width:1;"/><line style="stroke:#181818;stroke-width:1;stroke-dasharray:2,2;" x1="438.2788" x2="634.748" y1="799.7813" y2="799.7813"/><text fill="#000000" font-family="sans-serif" font-size="13" lengthAdjust="spacing" textLength="105.7837" x="445.2788" y="794.7153">Timer.Q = TRUE</text></g><g class="message" data-participant-1="Brewer" data-participant-2="VAR"><polygon fill="#181818" points="152.9521,824.9141,142.9521,828.9141,152.9521,832.9141,148.9521,828.9141" style="stroke:#181818;stroke-width:1;"/><line style="stroke:#181818;stroke-width:1;" x1="146.9521" x2="639.748" y1="828.9141" y2="828.9141"/><text fill="#000000" font-family="sans-serif" font-size="13" lengthAdjust="spacing" textLength="126.2676" x="158.9521" y="823.8481">BREWING := FALSE</text></g><g class="message" data-participant-1="Brewer" data-participant-2="VAR"><polygon fill="#181818" points="152.9521,854.0469,142.9521,858.0469,152.9521,862.0469,148.9521,858.0469" style="stroke:#181818;stroke-width:1;"/><line style="stroke:#181818;stroke-width:1;" x1="146.9521" x2="639.748" y1="858.0469" y2="858.0469"/><text fill="#000000" font-family="sans-serif" font-size="13" lengthAdjust="spacing" textLength="147.8623" x="158.9521" y="852.981">Coffee_Ready := TRUE</text></g><rect fill="#EEEEEE" height="3" style="stroke:#EEEEEE;stroke-width:1;" width="902.7988" x="0" y="893.6133"/><line style="stroke:#000000;stroke-width:1;" x1="0" x2="902.7988" y1="893.6133" y2="893.6133"/><line style="stroke:#000000;stroke-width:1;" x1="0" x2="902.7988" y1="896.6133" y2="896.6133"/><rect fill="#EEEEEE" height="23.1328" style="stroke:#000000;stroke-width:2;" width="107.3613" x="397.7188" y="883.0469"/><text fill="#000000" font-family="sans-serif" font-size="13" font-weight="bold" lengthAdjust="spacing" textLength="88.8354" x="403.7188" y="899.1138">End Process</text><path d="M672.6445,923.1797 L737.0874,923.1797 L737.0874,930.3125 L727.0874,940.3125 L672.6445,940.3125 L672.6445,923.1797" fill="#EEEEEE" style="stroke:#000000;stroke-width:1.5;"/><rect fill="none" height="46.2656" style="stroke:#000000;stroke-width:1.5;" width="220.1543" x="672.6445" y="923.1797"/><text fill="#000000" font-family="sans-serif" font-size="13" font-weight="bold" lengthAdjust="spacing" textLength="19.4429" x="687.6445" y="936.2466">alt</text><text fill="#000000" font-family="sans-serif" font-size="11" font-weight="bold" lengthAdjust="spacing" textLength="135.7114" x="752.0874" y="935.3901">[coffe_ready := TRUE]</text><g class="message" data-participant-1="CoffeeReady" data-participant-2="GVL"><polygon fill="#181818" points="838.4629,957.4453,848.4629,961.4453,838.4629,965.4453,842.4629,961.4453" style="stroke:#181818;stroke-width:1;"/><line style="stroke:#181818;stroke-width:1;" x1="734.4028" x2="844.4629" y1="961.4453" y2="961.4453"/><text fill="#000000" font-family="sans-serif" font-size="13" lengthAdjust="spacing" textLength="92.0601" x="741.4028" y="956.3794">Finish :=TRUE</text></g><!--SRC=[VLF1Re904BtlLyobnofDqwQIOg86r8GsBQ8UpGR6kX6XOJSr_VlkihWi47eYE-_DctapWs0YGrWKnoCYlD4pbd0F8SkHbl1H5Wbo3a5MN0dnFDW8MWeJzZn2jbmbJ64tYy2jSTU3EDhwXAYWnFPKI98BYnCcP_qwXFY36T68IRSXGZDX1-0LNfoxhgGk6B0iO_bNLovOX-7wVMdwCN3CBbMsgBvFdEY0fLiXeyz-QgzHHNbmP6V3nODPkF49vgcPo0fR_QkdwhyE6usLFujj0mq-vC3MZciFlUIUk6wmIz0cOxnyAyx46Ja3b0Xf-jjiNTx9lCIhDDIwbDgwWdhNK2bO6zUAjM2TOOhE8tzlJwN1RrFHKttausS-djYpCSKxi_cdX9vDbw3_buxpQiFIlP-dBUVALw8I3cMBhqMqXbHUxa9rDond_2GvDya_]--></g></svg>