<svg xmlns="http://www.w3.org/2000/svg" xmlns:xlink="http://www.w3.org/1999/xlink" contentStyleType="text/css" data-diagram-type="SEQUENCE" height="619px" preserveAspectRatio="none" style="width:477px;height:619px;background:#FFFFFF;" version="1.1" viewBox="0 0 477 619" width="477px" zoomAndPan="magnify"><defs/><g><rect fill="none" height="46.2656" style="stroke:#000000;stroke-width:1.5;" width="272.1489" x="153.2026" y="344.3594"/><rect fill="none" height="88.3984" style="stroke:#000000;stroke-width:1.5;" width="318.5459" x="153.2026" y="404.625"/><g><title>User</title><rect fill="#000000" fill-opacity="0.00000" height="457.8594" width="8" x="19.9551" y="81.2969"/><line style="stroke:#181818;stroke-width:0.5;stroke-dasharray:5,5;" x1="23" x2="23" y1="81.2969" y2="539.1563"/></g><g><title>CoffeeMachine</title><rect fill="#000000" fill-opacity="0.00000" height="457.8594" width="8" x="218.2173" y="81.2969"/><line style="stroke:#181818;stroke-width:0.5;stroke-dasharray:5,5;" x1="222.2026" x2="222.2026" y1="81.2969" y2="539.1563"/></g><g><title>Maintenance</title><rect fill="#000000" fill-opacity="0.00000" height="457.8594" width="8" x="359.272" y="81.2969"/><line style="stroke:#181818;stroke-width:0.5;stroke-dasharray:5,5;" x1="363.1924" x2="363.1924" y1="81.2969" y2="539.1563"/></g><g class="participant participant-head" data-participant="User"><text fill="#000000" font-family="sans-serif" font-size="14" lengthAdjust="spacing" textLength="31.9102" x="5" y="77.9951">User</text><ellipse cx="23.9551" cy="13.5" fill="#E2E2F0" rx="8" ry="8" style="stroke:#181818;stroke-width:0.5;"/><path d="M23.9551,21.5 L23.9551,48.5 M10.9551,29.5 L36.9551,29.5 M23.9551,48.5 L10.9551,63.5 M23.9551,48.5 L36.9551,63.5" fill="none" style="stroke:#181818;stroke-width:0.5;"/></g><g class="participant participant-tail" data-participant="User"><text fill="#000000" font-family="sans-serif" font-size="14" lengthAdjust="spacing" textLength="31.9102" x="5" y="551.1514">User</text><ellipse cx="23.9551" cy="562.9531" fill="#E2E2F0" rx="8" ry="8" style="stroke:#181818;stroke-width:0.5;"/><path d="M23.9551,570.9531 L23.9551,597.9531 M10.9551,578.9531 L36.9551,578.9531 M23.9551,597.9531 L10.9551,612.9531 M23.9551,597.9531 L36.9551,612.9531" fill="none" style="stroke:#181818;stroke-width:0.5;"/></g><g class="participant participant-head" data-participant="CoffeeMachine"><rect fill="#E2E2F0" height="30.2969" rx="2.5" ry="2.5" style="stroke:#181818;stroke-width:0.5;" width="118.0293" x="163.2026" y="50"/><text fill="#000000" font-family="sans-serif" font-size="14" lengthAdjust="spacing" textLength="104.0293" x="170.2026" y="69.9951">CoffeeMachine</text></g><g class="participant participant-tail" data-participant="CoffeeMachine"><rect fill="#E2E2F0" height="30.2969" rx="2.5" ry="2.5" style="stroke:#181818;stroke-width:0.5;" width="118.0293" x="163.2026" y="538.1563"/><text fill="#000000" font-family="sans-serif" font-size="14" lengthAdjust="spacing" textLength="104.0293" x="170.2026" y="558.1514">CoffeeMachine</text></g><g class="participant participant-head" data-participant="Maintenance"><rect fill="#E2E2F0" height="30.2969" rx="2.5" ry="2.5" style="stroke:#181818;stroke-width:0.5;" width="104.1592" x="311.1924" y="50"/><text fill="#000000" font-family="sans-serif" font-size="14" lengthAdjust="spacing" textLength="90.1592" x="318.1924" y="69.9951">Maintenance</text></g><g class="participant participant-tail" data-participant="Maintenance"><rect fill="#E2E2F0" height="30.2969" rx="2.5" ry="2.5" style="stroke:#181818;stroke-width:0.5;" width="104.1592" x="311.1924" y="538.1563"/><text fill="#000000" font-family="sans-serif" font-size="14" lengthAdjust="spacing" textLength="90.1592" x="318.1924" y="558.1514">Maintenance</text></g><g class="message" data-participant-1="User" data-participant-2="CoffeeMachine"><polygon fill="#181818" points="210.2173,108.4297,220.2173,112.4297,210.2173,116.4297,214.2173,112.4297" style="stroke:#181818;stroke-width:1;"/><line style="stroke:#181818;stroke-width:1;" x1="23.9551" x2="216.2173" y1="112.4297" y2="112.4297"/><text fill="#000000" font-family="sans-serif" font-size="13" lengthAdjust="spacing" textLength="108.3418" x="30.9551" y="107.3638">"I want a coffee"</text></g><g class="message" data-participant-1="CoffeeMachine" data-participant-2="CoffeeMachine"><line style="stroke:#181818;stroke-width:1;" x1="222.2173" x2="264.2173" y1="141.5625" y2="141.5625"/><line style="stroke:#181818;stroke-width:1;" x1="264.2173" x2="264.2173" y1="141.5625" y2="154.5625"/><line style="stroke:#181818;stroke-width:1;" x1="223.2173" x2="264.2173" y1="154.5625" y2="154.5625"/><polygon fill="#181818" points="233.2173,150.5625,223.2173,154.5625,233.2173,158.5625,229.2173,154.5625" style="stroke:#181818;stroke-width:1;"/><text fill="#000000" font-family="sans-serif" font-size="13" lengthAdjust="spacing" textLength="127.0547" x="229.2173" y="136.4966">start making coffee</text></g><g class="message" data-participant-1="CoffeeMachine" data-participant-2="User"><polygon fill="#181818" points="34.9551,179.6953,24.9551,183.6953,34.9551,187.6953,30.9551,183.6953" style="stroke:#181818;stroke-width:1;"/><line style="stroke:#181818;stroke-width:1;" x1="28.9551" x2="221.2173" y1="183.6953" y2="183.6953"/><text fill="#000000" font-family="sans-serif" font-size="13" lengthAdjust="spacing" textLength="106.6089" x="40.9551" y="178.6294">"What intensity"</text></g><g class="message" data-participant-1="User" data-participant-2="CoffeeMachine"><polygon fill="#181818" points="210.2173,208.8281,220.2173,212.8281,210.2173,216.8281,214.2173,212.8281" style="stroke:#181818;stroke-width:1;"/><line style="stroke:#181818;stroke-width:1;" x1="23.9551" x2="216.2173" y1="212.8281" y2="212.8281"/><text fill="#000000" font-family="sans-serif" font-size="13" lengthAdjust="spacing" textLength="118.9233" x="30.9551" y="207.7622">intensity selection</text></g><g class="message" data-participant-1="CoffeeMachine" data-participant-2="User"><polygon fill="#181818" points="34.9551,237.9609,24.9551,241.9609,34.9551,245.9609,30.9551,241.9609" style="stroke:#181818;stroke-width:1;"/><line style="stroke:#181818;stroke-width:1;" x1="28.9551" x2="221.2173" y1="241.9609" y2="241.9609"/><text fill="#000000" font-family="sans-serif" font-size="13" lengthAdjust="spacing" textLength="106.8628" x="40.9551" y="236.895">"sugar quantity"</text></g><g class="message" data-participant-1="User" data-participant-2="CoffeeMachine"><polygon fill="#181818" points="210.2173,267.0938,220.2173,271.0938,210.2173,275.0938,214.2173,271.0938" style="stroke:#181818;stroke-width:1;"/><line style="stroke:#181818;stroke-width:1;" x1="23.9551" x2="216.2173" y1="271.0938" y2="271.0938"/><text fill="#000000" font-family="sans-serif" font-size="13" lengthAdjust="spacing" textLength="99.1377" x="30.9551" y="266.0278">sugar selection</text></g><g class="message" data-participant-1="CoffeeMachine" data-participant-2="Maintenance"><polygon fill="#181818" points="351.272,296.2266,361.272,300.2266,351.272,304.2266,355.272,300.2266" style="stroke:#181818;stroke-width:1;"/><line style="stroke:#181818;stroke-width:1;" x1="222.2173" x2="357.272" y1="300.2266" y2="300.2266"/><text fill="#000000" font-family="sans-serif" font-size="13" lengthAdjust="spacing" textLength="81.6372" x="229.2173" y="295.1606">coffee ready</text></g><g class="message" data-participant-1="CoffeeMachine" data-participant-2="User"><polygon fill="#181818" points="34.9551,325.3594,24.9551,329.3594,34.9551,333.3594,30.9551,329.3594" style="stroke:#181818;stroke-width:1;"/><line style="stroke:#181818;stroke-width:1;" x1="28.9551" x2="221.2173" y1="329.3594" y2="329.3594"/><text fill="#000000" font-family="sans-serif" font-size="13" lengthAdjust="spacing" textLength="141.4766" x="40.9551" y="324.2935">"your coffee is ready"</text></g><path d="M153.2026,344.3594 L217.6455,344.3594 L217.6455,351.4922 L207.6455,361.4922 L153.2026,361.4922 L153.2026,344.3594" fill="#EEEEEE" style="stroke:#000000;stroke-width:1.5;"/><rect fill="none" height="46.2656" style="stroke:#000000;stroke-width:1.5;" width="272.1489" x="153.2026" y="344.3594"/><text fill="#000000" font-family="sans-serif" font-size="13" font-weight="bold" lengthAdjust="spacing" textLength="19.4429" x="168.2026" y="357.4263">alt</text><text fill="#000000" font-family="sans-serif" font-size="11" font-weight="bold" lengthAdjust="spacing" textLength="87.8066" x="232.6455" y="356.5698">[coffee ready]</text><g class="message" data-participant-1="CoffeeMachine" data-participant-2="Maintenance"><polygon fill="#181818" points="351.272,378.625,361.272,382.625,351.272,386.625,355.272,382.625" style="stroke:#181818;stroke-width:1;"/><line style="stroke:#181818;stroke-width:1;" x1="222.2173" x2="357.272" y1="382.625" y2="382.625"/><text fill="#000000" font-family="sans-serif" font-size="13" lengthAdjust="spacing" textLength="104.5586" x="229.2173" y="377.5591">coffee made +1</text></g><path d="M153.2026,404.625 L217.6455,404.625 L217.6455,411.7578 L207.6455,421.7578 L153.2026,421.7578 L153.2026,404.625" fill="#EEEEEE" style="stroke:#000000;stroke-width:1.5;"/><rect fill="none" height="88.3984" style="stroke:#000000;stroke-width:1.5;" width="318.5459" x="153.2026" y="404.625"/><text fill="#000000" font-family="sans-serif" font-size="13" font-weight="bold" lengthAdjust="spacing" textLength="19.4429" x="168.2026" y="417.6919">alt</text><text fill="#000000" font-family="sans-serif" font-size="11" font-weight="bold" lengthAdjust="spacing" textLength="93.2368" x="232.6455" y="416.8354">[Counter &gt;= 5]</text><g class="message" data-participant-1="Maintenance" data-participant-2="Maintenance"><line style="stroke:#181818;stroke-width:1;" x1="363.272" x2="405.272" y1="442.8906" y2="442.8906"/><line style="stroke:#181818;stroke-width:1;" x1="405.272" x2="405.272" y1="442.8906" y2="455.8906"/><line style="stroke:#181818;stroke-width:1;" x1="364.272" x2="405.272" y1="455.8906" y2="455.8906"/><polygon fill="#181818" points="374.272,451.8906,364.272,455.8906,374.272,459.8906,370.272,455.8906" style="stroke:#181818;stroke-width:1;"/><text fill="#000000" font-family="sans-serif" font-size="13" lengthAdjust="spacing" textLength="89.4766" x="370.272" y="437.8247">start cleaning</text></g><g class="message" data-participant-1="Maintenance" data-participant-2="CoffeeMachine"><polygon fill="#181818" points="233.2173,481.0234,223.2173,485.0234,233.2173,489.0234,229.2173,485.0234" style="stroke:#181818;stroke-width:1;"/><line style="stroke:#181818;stroke-width:1;" x1="227.2173" x2="362.272" y1="485.0234" y2="485.0234"/><text fill="#000000" font-family="sans-serif" font-size="13" lengthAdjust="spacing" textLength="66.7837" x="239.2173" y="479.9575">CLEANING</text></g><g class="message" data-participant-1="CoffeeMachine" data-participant-2="User"><polygon fill="#181818" points="34.9551,517.1563,24.9551,521.1563,34.9551,525.1563,30.9551,521.1563" style="stroke:#181818;stroke-width:1;"/><line style="stroke:#181818;stroke-width:1;" x1="28.9551" x2="221.2173" y1="521.1563" y2="521.1563"/><text fill="#000000" font-family="sans-serif" font-size="13" lengthAdjust="spacing" textLength="174.2622" x="40.9551" y="516.0903">"Ready for another coffee"</text></g><!--SRC=[ZPBDQiCm48JlUef1rz933xq46WYcb42JGw3qlCZhMDHPKMbDyTjNbfFI97NeHGZqpSp-Y9o62FkME5fGmdWnPZnnlqGLcePvGwxrmbZ0hl55eY2uycBDEV6792b5nO4-lEoFgcjHoSlsxoqfl2XByZhOsJf-42JksAaFCc-Q-Zr5VFQvy9kc4tV3S4CbbyID-DGB8bCzp8SFeOydrAU9jeOwFTFZds47gXbt3uQbBXvLw3CKiNp2e_cjk3AOrk0w9icBk6GlHr6zFg-sw-tB68IvvkokbDxa_qCIjELJe_OR]--></g></svg>